RobotoDelta-YTUCmin.ufo
<glyph name="A" format="1">
  <advance width="1280"/>
  <unicode hex="0041"/>
  <outline>
    <contour>
      <point x="0" y="0" type="line"/>
      <point x="192" y="0" type="line"/>
      <point x="596" y="817" type="line" smooth="yes"/>
      <point x="608" y="842"/>
      <point x="626" y="888"/>
      <point x="633" y="912" type="qcurve"/>
      <point x="643" y="912" type="line"/>
      <point x="650" y="888"/>
      <point x="668" y="842"/>
      <point x="680" y="817" type="qcurve" smooth="yes"/>
      <point x="1080" y="0" type="line"/>
      <point x="1280" y="0" type="line"/>
      <point x="726" y="1089" type="line"/>
      <point x="554" y="1089" type="line"/>
    </contour>
    <contour>
      <point x="238" y="282" type="line"/>
      <point x="1039" y="282" type="line"/>
      <point x="981" y="400" type="line"/>
      <point x="297" y="400" type="line"/>
    </contour>
    <contour>
      <point x="640" y="1060" type="move" name="top"/>
    </contour>
  </outline>
</glyph>
<glyph name="B" format="1">
  <advance width="1260"/>
  <unicode hex="0042"/>
  <outline>
    <contour>
      <point x="170" y="0" type="line"/>
      <point x="680" y="0" type="line" smooth="yes"/>
      <point x="897" y="0"/>
      <point x="1160" y="163"/>
      <point x="1160" y="312" type="qcurve" smooth="yes"/>
      <point x="1160" y="416"/>
      <point x="1020" y="544"/>
      <point x="910" y="568" type="qcurve"/>
      <point x="910" y="571" type="line"/>
      <point x="1000" y="594"/>
      <point x="1122" y="706"/>
      <point x="1122" y="795" type="qcurve" smooth="yes"/>
      <point x="1122" y="944"/>
      <point x="870" y="1082"/>
      <point x="650" y="1082" type="qcurve" smooth="yes"/>
      <point x="170" y="1082" type="line"/>
    </contour>
    <contour>
      <point x="358" y="117" type="line"/>
      <point x="358" y="505" type="line"/>
      <point x="680" y="505" type="line" smooth="yes"/>
      <point x="830" y="505"/>
      <point x="970" y="401"/>
      <point x="970" y="312" type="qcurve" smooth="yes"/>
      <point x="970" y="223"/>
      <point x="830" y="117"/>
      <point x="680" y="117" type="qcurve" smooth="yes"/>
    </contour>
    <contour>
      <point x="358" y="621" type="line"/>
      <point x="358" y="964" type="line"/>
      <point x="650" y="964" type="line" smooth="yes"/>
      <point x="800" y="964"/>
      <point x="932" y="877"/>
      <point x="932" y="795" type="qcurve" smooth="yes"/>
      <point x="932" y="713"/>
      <point x="800" y="621"/>
      <point x="650" y="621" type="qcurve" smooth="yes"/>
    </contour>
  </outline>
</glyph>
<glyph name="C" format="1">
  <advance width="1325"/>
  <unicode hex="0043"/>
  <outline>
    <contour>
      <point x="115" y="507" type="line" smooth="yes"/>
      <point x="115" y="253.21928166351606"/>
      <point x="460.0" y="-30.0"/>
      <point x="720" y="-30" type="qcurve" smooth="yes"/>
      <point x="980.0" y="-30.0"/>
      <point x="1252.2763351890712" y="186.93434632349923"/>
      <point x="1274" y="339" type="qcurve" smooth="yes"/>
      <point x="1275" y="346" type="line"/>
      <point x="1083" y="346" type="line"/>
      <point x="1082" y="339" type="line" smooth="yes"/>
      <point x="1071.0714781367415" y="262.50034695719046"/>
      <point x="900.0" y="134.0"/>
      <point x="720" y="134" type="qcurve" smooth="yes"/>
      <point x="540.0" y="134.0"/>
      <point x="309" y="332.8722358722359"/>
      <point x="309" y="507" type="qcurve" smooth="yes"/>
      <point x="309" y="575" type="line" smooth="yes"/>
      <point x="309" y="749.1277641277641"/>
      <point x="540.0" y="948.0"/>
      <point x="720" y="948" type="qcurve" smooth="yes"/>
      <point x="900.0" y="948.0"/>
      <point x="1071.0714781367415" y="819.4996530428095"/>
      <point x="1082" y="743" type="qcurve" smooth="yes"/>
      <point x="1083" y="736" type="line"/>
      <point x="1275" y="736" type="line"/>
      <point x="1274" y="743" type="line" smooth="yes"/>
      <point x="1252.2763351890712" y="895.0656536765007"/>
      <point x="980.0" y="1112.0"/>
      <point x="720" y="1112" type="qcurve" smooth="yes"/>
      <point x="460.0" y="1112.0"/>
      <point x="115" y="828.7807183364839"/>
      <point x="115" y="575" type="qcurve" smooth="yes"/>
    </contour>
  </outline>
</glyph>
<glyph name="D" format="1">
  <advance width="1370"/>
  <unicode hex="0044"/>
  <outline>
    <contour>
      <point x="170" y="0" type="line"/>
      <point x="602" y="0" type="line" smooth="yes"/>
      <point x="882" y="0"/>
      <point x="1255" y="275"/>
      <point x="1255" y="507" type="qcurve" smooth="yes"/>
      <point x="1255" y="575" type="line" smooth="yes"/>
      <point x="1255" y="807"/>
      <point x="882" y="1082"/>
      <point x="602" y="1082" type="qcurve" smooth="yes"/>
      <point x="170" y="1082" type="line"/>
    </contour>
    <contour>
      <point x="362" y="158" type="line"/>
      <point x="362" y="924" type="line"/>
      <point x="602" y="924" type="line" smooth="yes"/>
      <point x="812.0" y="924"/>
      <point x="1061" y="739.1825192802056"/>
      <point x="1061" y="575" type="qcurve" smooth="yes"/>
      <point x="1061" y="507" type="line" smooth="yes"/>
      <point x="1061" y="343.23846153846154"/>
      <point x="812.0" y="158"/>
      <point x="602" y="158" type="qcurve" smooth="yes"/>
    </contour>
  </outline>
</glyph>
<glyph name="G" format="1">
  <advance width="1358"/>
  <unicode hex="0047"/>
  <outline>
    <contour>
      <point x="115" y="507" type="line" smooth="yes"/>
      <point x="115" y="257"/>
      <point x="460" y="-22"/>
      <point x="750" y="-22" type="qcurve" smooth="yes"/>
      <point x="940" y="-22"/>
      <point x="1210" y="67"/>
      <point x="1278" y="119" type="qcurve"/>
      <point x="1278" y="541" type="line"/>
      <point x="730" y="541" type="line"/>
      <point x="730" y="424" type="line"/>
      <point x="1092" y="424" type="line"/>
      <point x="1092" y="171" type="line"/>
      <point x="1020" y="134"/>
      <point x="860" y="100"/>
      <point x="750" y="100" type="qcurve" smooth="yes"/>
      <point x="540" y="100"/>
      <point x="309" y="317"/>
      <point x="309" y="507" type="qcurve" smooth="yes"/>
      <point x="309" y="575" type="line" smooth="yes"/>
      <point x="309" y="765"/>
      <point x="540" y="982"/>
      <point x="720" y="982" type="qcurve" smooth="yes"/>
      <point x="900" y="982"/>
      <point x="1075" y="847"/>
      <point x="1085" y="773" type="qcurve" smooth="yes"/>
      <point x="1086" y="765" type="line"/>
      <point x="1278" y="765" type="line"/>
      <point x="1277" y="773" type="line" smooth="yes"/>
      <point x="1259" y="906"/>
      <point x="980" y="1104"/>
      <point x="720" y="1104" type="qcurve" smooth="yes"/>
      <point x="460" y="1104"/>
      <point x="115" y="825"/>
      <point x="115" y="575" type="qcurve" smooth="yes"/>
    </contour>
  </outline>
</glyph>
<glyph name="J" format="1">
  <advance width="1100"/>
  <unicode hex="004A"/>
  <outline>
    <contour>
      <point x="25" y="297" type="line" smooth="yes"/>
      <point x="25" y="149"/>
      <point x="280" y="-22"/>
      <point x="485" y="-22" type="qcurve" smooth="yes"/>
      <point x="690" y="-22"/>
      <point x="945" y="160"/>
      <point x="945" y="316" type="qcurve" smooth="yes"/>
      <point x="945" y="1082" type="line"/>
      <point x="753" y="1082" type="line"/>
      <point x="753" y="316" type="line" smooth="yes"/>
      <point x="753" y="212"/>
      <point x="610" y="100"/>
      <point x="485" y="100" type="qcurve" smooth="yes"/>
      <point x="360" y="100"/>
      <point x="217" y="201"/>
      <point x="217" y="297" type="qcurve" smooth="yes"/>
      <point x="217" y="305" type="line"/>
      <point x="25" y="305" type="line"/>
    </contour>
  </outline>
</glyph>
<glyph name="K" format="1">
  <advance width="1266"/>
  <unicode hex="004B"/>
  <outline>
    <contour>
      <point x="170" y="0" type="line"/>
      <point x="170" y="1082" type="line"/>
      <point x="363" y="1082" type="line"/>
      <point x="363" y="562" type="line"/>
      <point x="980" y="1082" type="line"/>
      <point x="1242" y="1082" type="line"/>
      <point x="363" y="355" type="line"/>
      <point x="363" y="0" type="line"/>
    </contour>
    <contour>
      <point x="1031" y="0" type="line"/>
      <point x="499" y="547" type="line"/>
      <point x="632" y="661" type="line"/>
      <point x="1286" y="0" type="line"/>
    </contour>
  </outline>
</glyph>
<glyph name="M" format="1">
  <advance width="1790"/>
  <unicode hex="004D"/>
  <outline>
    <contour>
      <point x="170" y="0" type="line"/>
      <point x="352" y="0" type="line"/>
      <point x="352" y="760" type="line" smooth="yes"/>
      <point x="352" y="782"/>
      <point x="346" y="838"/>
      <point x="342" y="860" type="qcurve"/>
      <point x="354" y="860" type="line"/>
      <point x="360" y="838"/>
      <point x="384" y="782"/>
      <point x="396" y="760" type="qcurve" smooth="yes"/>
      <point x="810" y="0" type="line"/>
      <point x="976" y="0" type="line"/>
      <point x="1390" y="760" type="line" smooth="yes"/>
      <point x="1402" y="782"/>
      <point x="1426" y="838"/>
      <point x="1432" y="860" type="qcurve"/>
      <point x="1444" y="860" type="line"/>
      <point x="1440" y="838"/>
      <point x="1434" y="782"/>
      <point x="1434" y="760" type="qcurve" smooth="yes"/>
      <point x="1434" y="0" type="line"/>
      <point x="1620" y="0" type="line"/>
      <point x="1620" y="1082" type="line"/>
      <point x="1372" y="1082" type="line"/>
      <point x="944" y="283" type="line" smooth="yes"/>
      <point x="932" y="261"/>
      <point x="909" y="213"/>
      <point x="899" y="190" type="qcurve"/>
      <point x="891" y="190" type="line"/>
      <point x="881" y="213"/>
      <point x="858" y="261"/>
      <point x="846" y="283" type="qcurve" smooth="yes"/>
      <point x="418" y="1082" type="line"/>
      <point x="170" y="1082" type="line"/>
    </contour>
  </outline>
</glyph>
<glyph name="N" format="1">
  <advance width="1460"/>
  <unicode hex="004E"/>
  <outline>
    <contour>
      <point x="170" y="0" type="line"/>
      <point x="358" y="0" type="line"/>
      <point x="358" y="743" type="line" smooth="yes"/>
      <point x="358" y="765"/>
      <point x="354" y="821"/>
      <point x="350" y="843" type="qcurve"/>
      <point x="360" y="843" type="line"/>
      <point x="374" y="825"/>
      <point x="408" y="780"/>
      <point x="428" y="758" type="qcurve" smooth="yes"/>
      <point x="1090" y="0" type="line"/>
      <point x="1290" y="0" type="line"/>
      <point x="1290" y="1082" type="line"/>
      <point x="1102" y="1082" type="line"/>
      <point x="1102" y="339" type="line" smooth="yes"/>
      <point x="1102" y="317"/>
      <point x="1106" y="261"/>
      <point x="1110" y="239" type="qcurve"/>
      <point x="1100" y="239" type="line"/>
      <point x="1086" y="257"/>
      <point x="1052" y="302"/>
      <point x="1032" y="324" type="qcurve" smooth="yes"/>
      <point x="370" y="1082" type="line"/>
      <point x="170" y="1082" type="line"/>
    </contour>
    <contour>
      <point x="740" y="1060" type="move" name="top"/>
    </contour>
  </outline>
</glyph>
<glyph name="O" format="1">
  <advance width="1460"/>
  <unicode hex="004F"/>
  <outline>
    <contour>
      <point x="115" y="507" type="line" smooth="yes"/>
      <point x="115" y="253.21928166351606"/>
      <point x="460.0" y="-30.0"/>
      <point x="730" y="-30" type="qcurve" smooth="yes"/>
      <point x="1000.0" y="-30.0"/>
      <point x="1345" y="253.21928166351606"/>
      <point x="1345" y="507" type="qcurve" smooth="yes"/>
      <point x="1345" y="575" type="line" smooth="yes"/>
      <point x="1345" y="828.7807183364839"/>
      <point x="1000" y="1112"/>
      <point x="730" y="1112" type="qcurve" smooth="yes"/>
      <point x="460" y="1112"/>
      <point x="115" y="828.7807183364839"/>
      <point x="115" y="575" type="qcurve" smooth="yes"/>
    </contour>
    <contour>
      <point x="309" y="507" type="qcurve" smooth="yes"/>
      <point x="309" y="575" type="line" smooth="yes"/>
      <point x="309" y="749.1277641277642"/>
      <point x="540.0" y="948.0"/>
      <point x="730" y="948" type="qcurve" smooth="yes"/>
      <point x="920.0" y="948.0"/>
      <point x="1151" y="749.1277641277642"/>
      <point x="1151" y="575" type="qcurve" smooth="yes"/>
      <point x="1151" y="507" type="line" smooth="yes"/>
      <point x="1151" y="332.87223587223593"/>
      <point x="920.0" y="134.0"/>
      <point x="730" y="134" type="qcurve" smooth="yes"/>
      <point x="540.0" y="134.0"/>
      <point x="309" y="332.87223587223593"/>
    </contour>
  </outline>
</glyph>
<glyph name="R" format="1">
  <advance width="1250"/>
  <unicode hex="0052"/>
  <outline>
    <contour>
      <point x="170" y="0" type="line"/>
      <point x="362" y="0" type="line"/>
      <point x="362" y="420" type="line"/>
      <point x="644" y="420" type="line" smooth="yes"/>
      <point x="878.0" y="420"/>
      <point x="1132.0" y="610.6377708978329"/>
      <point x="1132" y="764" type="qcurve" smooth="yes"/>
      <point x="1132" y="908"/>
      <point x="878" y="1082"/>
      <point x="644" y="1082" type="qcurve" smooth="yes"/>
      <point x="170" y="1082" type="line"/>
    </contour>
    <contour>
      <point x="362" y="578" type="line"/>
      <point x="362" y="924" type="line"/>
      <point x="644" y="924" type="line" smooth="yes"/>
      <point x="810.0" y="924"/>
      <point x="940.0" y="832.1188118811881"/>
      <point x="940" y="764" type="qcurve" smooth="yes"/>
      <point x="940.0" y="686.7246376811595"/>
      <point x="810.0" y="578"/>
      <point x="644" y="578" type="qcurve" smooth="yes"/>
    </contour>
    <contour>
      <point x="996" y="0" type="line"/>
      <point x="1210" y="0" type="line"/>
      <point x="846" y="499" type="line"/>
      <point x="640" y="499" type="line"/>
    </contour>
  </outline>
</glyph>
<glyph name="S" format="1">
  <advance width="1220"/>
  <unicode hex="0053"/>
  <outline>
    <contour>
      <point x="90" y="316" type="line" smooth="yes"/>
      <point x="90" y="160"/>
      <point x="380.0" y="-22.0"/>
      <point x="620" y="-22" type="qcurve" smooth="yes"/>
      <point x="860.0" y="-22.0"/>
      <point x="1140.0" y="154.3827160493827"/>
      <point x="1140" y="292" type="qcurve" smooth="yes"/>
      <point x="1140.0" y="430.0853658536585"/>
      <point x="930.3148108398046" y="579.9330189702544"/>
      <point x="695" y="630" type="qcurve" smooth="yes"/>
      <point x="459.34493705803874" y="680.1393750940343"/>
      <point x="310.0" y="743.6875"/>
      <point x="310" y="800" type="qcurve" smooth="yes"/>
      <point x="310.0" y="867.2"/>
      <point x="456.0" y="940.0"/>
      <point x="610" y="940" type="qcurve" smooth="yes"/>
      <point x="764.0" y="940.0"/>
      <point x="920" y="847"/>
      <point x="920" y="771" type="qcurve" smooth="yes"/>
      <point x="920" y="762" type="line"/>
      <point x="1112" y="762" type="line"/>
      <point x="1112" y="771" type="line" smooth="yes"/>
      <point x="1112" y="909"/>
      <point x="840.0" y="1104.0"/>
      <point x="610" y="1104" type="qcurve" smooth="yes"/>
      <point x="380.0" y="1104.0"/>
      <point x="120.0" y="930.7006369426751"/>
      <point x="120" y="800" type="qcurve" smooth="yes"/>
      <point x="120.0" y="670.0"/>
      <point x="319.6720030339786" y="525.0697865885152"/>
      <point x="555" y="475" type="qcurve" smooth="yes"/>
      <point x="790.6045239141155" y="424.87137789061376"/>
      <point x="950.0" y="356.52601156069363"/>
      <point x="950" y="292" type="qcurve" smooth="yes"/>
      <point x="950.0" y="225.4375"/>
      <point x="780.0" y="142.0"/>
      <point x="620" y="142" type="qcurve" smooth="yes"/>
      <point x="460.0" y="142.0"/>
      <point x="282" y="229"/>
      <point x="282" y="316" type="qcurve" smooth="yes"/>
      <point x="282" y="325" type="line"/>
      <point x="90" y="325" type="line"/>
    </contour>
  </outline>
</glyph>
<glyph name="V" format="1">
  <advance width="1260"/>
  <unicode hex="0056"/>
  <outline>
    <contour>
      <point x="0" y="1082" type="line"/>
      <point x="544" y="-7" type="line"/>
      <point x="716" y="-7" type="line"/>
      <point x="1260" y="1082" type="line"/>
      <point x="1064" y="1082" type="line"/>
      <point x="674" y="281" type="line" smooth="yes"/>
      <point x="662" y="256"/>
      <point x="644" y="210"/>
      <point x="637" y="186" type="qcurve"/>
      <point x="627" y="186" type="line"/>
      <point x="620" y="210"/>
      <point x="602" y="256"/>
      <point x="590" y="281" type="qcurve" smooth="yes"/>
      <point x="204" y="1082" type="line"/>
    </contour>
  </outline>
</glyph>
<glyph name="W" format="1">
  <advance width="1812"/>
  <unicode hex="0057"/>
  <outline>
    <contour>
      <point x="408" y="-7" type="line"/>
      <point x="596" y="-7" type="line"/>
      <point x="882" y="795" type="line" smooth="yes"/>
      <point x="891" y="820"/>
      <point x="900" y="866"/>
      <point x="903" y="890" type="qcurve"/>
      <point x="909" y="890" type="line"/>
      <point x="912" y="866"/>
      <point x="921" y="820"/>
      <point x="930" y="795" type="qcurve" smooth="yes"/>
      <point x="1216" y="-7" type="line"/>
      <point x="1404" y="-7" type="line"/>
      <point x="1762" y="1082" type="line"/>
      <point x="1570" y="1082" type="line"/>
      <point x="1331" y="281" type="line" smooth="yes"/>
      <point x="1323" y="256"/>
      <point x="1316" y="210"/>
      <point x="1313" y="186" type="qcurve"/>
      <point x="1307" y="186" type="line"/>
      <point x="1304" y="210"/>
      <point x="1298" y="256"/>
      <point x="1289" y="281" type="qcurve" smooth="yes"/>
      <point x="1006" y="1082" type="line"/>
      <point x="808" y="1082" type="line"/>
      <point x="535" y="281" type="line" smooth="yes"/>
      <point x="526" y="256"/>
      <point x="520" y="210"/>
      <point x="517" y="186" type="qcurve"/>
      <point x="511" y="186" type="line"/>
      <point x="508" y="210"/>
      <point x="501" y="256"/>
      <point x="493" y="281" type="qcurve" smooth="yes"/>
      <point x="244" y="1082" type="line"/>
      <point x="50" y="1082" type="line"/>
    </contour>
  </outline>
</glyph>
<glyph name="Z" format="1">
  <advance width="1131"/>
  <unicode hex="005A"/>
  <outline>
    <contour>
      <point x="36" y="0" type="line"/>
      <point x="1095" y="0" type="line"/>
      <point x="1095" y="117" type="line"/>
      <point x="265" y="117" type="line"/>
      <point x="1063" y="978" type="line"/>
      <point x="1063" y="1082" type="line"/>
      <point x="48" y="1082" type="line"/>
      <point x="48" y="964" type="line"/>
      <point x="834" y="964" type="line"/>
      <point x="36" y="104" type="line"/>
    </contour>
  </outline>
</glyph>
<glyph name="AE" format="1">
  <advance width="1782"/>
  <unicode hex="00C6"/>
  <outline>
    <contour>
      <point x="-60" y="0" type="line"/>
      <point x="142" y="0" type="line"/>
      <point x="880" y="985" type="line"/>
      <point x="890" y="985" type="line"/>
      <point x="890" y="0" type="line"/>
      <point x="1714" y="0" type="line"/>
      <point x="1714" y="158" type="line"/>
      <point x="1082" y="158" type="line"/>
      <point x="1082" y="479" type="line"/>
      <point x="1612" y="479" type="line"/>
      <point x="1612" y="637" type="line"/>
      <point x="1082" y="637" type="line"/>
      <point x="1082" y="924" type="line"/>
      <point x="1704" y="924" type="line"/>
      <point x="1704" y="1082" type="line"/>
      <point x="762" y="1082" type="line"/>
    </contour>
    <contour>
      <point x="239" y="262" type="line"/>
      <point x="986" y="262" type="line"/>
      <point x="986" y="420" type="line"/>
      <point x="358" y="420" type="line"/>
    </contour>
  </outline>
</glyph>
<glyph name="Eth" format="1">
  <advance width="1369"/>
  <unicode hex="00D0"/>
  <outline>
    <contour>
      <point x="170" y="0" type="line"/>
      <point x="602" y="0" type="line" smooth="yes"/>
      <point x="882" y="0"/>
      <point x="1255" y="275"/>
      <point x="1255" y="507" type="qcurve" smooth="yes"/>
      <point x="1255" y="575" type="line" smooth="yes"/>
      <point x="1255" y="807"/>
      <point x="882" y="1082"/>
      <point x="602" y="1082" type="qcurve" smooth="yes"/>
      <point x="170" y="1082" type="line"/>
    </contour>
    <contour>
      <point x="362" y="117" type="line"/>
      <point x="362" y="964" type="line"/>
      <point x="602" y="964" type="line" smooth="yes"/>
      <point x="812" y="964"/>
      <point x="1061" y="758"/>
      <point x="1061" y="575" type="qcurve" smooth="yes"/>
      <point x="1061" y="507" type="line" smooth="yes"/>
      <point x="1061" y="324"/>
      <point x="812" y="117"/>
      <point x="602" y="117" type="qcurve" smooth="yes"/>
    </contour>
    <contour>
      <point x="40" y="597" type="line"/>
      <point x="40" y="486" type="line"/>
      <point x="702" y="486" type="line"/>
      <point x="702" y="597" type="line"/>
    </contour>
  </outline>
</glyph>
<glyph name="Thorn" format="1">
  <advance width="1250"/>
  <unicode hex="00DE"/>
  <outline>
    <contour>
      <point x="170" y="0" type="line"/>
      <point x="362" y="0" type="line"/>
      <point x="362" y="215" type="line"/>
      <point x="652" y="215" type="line" smooth="yes"/>
      <point x="892" y="215"/>
      <point x="1150" y="398"/>
      <point x="1150" y="546" type="qcurve" smooth="yes"/>
      <point x="1150" y="695"/>
      <point x="892" y="874"/>
      <point x="652" y="874" type="qcurve" smooth="yes"/>
      <point x="362" y="874" type="line"/>
      <point x="362" y="1082" type="line"/>
      <point x="170" y="1082" type="line"/>
    </contour>
    <contour>
      <point x="362" y="333" type="line"/>
      <point x="362" y="756" type="line"/>
      <point x="652" y="756" type="line" smooth="yes"/>
      <point x="822" y="756"/>
      <point x="958" y="635"/>
      <point x="958" y="546" type="qcurve" smooth="yes"/>
      <point x="958" y="457"/>
      <point x="822" y="333"/>
      <point x="652" y="333" type="qcurve" smooth="yes"/>
    </contour>
  </outline>
</glyph>
<glyph name="OE" format="1">
  <advance width="1902"/>
  <unicode hex="0152"/>
  <outline>
    <contour>
      <point x="115" y="507" type="line" smooth="yes"/>
      <point x="115" y="257"/>
      <point x="460" y="-22"/>
      <point x="730" y="-22" type="qcurve" smooth="yes"/>
      <point x="836" y="-22"/>
      <point x="1023" y="37"/>
      <point x="1098" y="95" type="qcurve"/>
      <point x="1098" y="287" type="line"/>
      <point x="1047" y="197"/>
      <point x="856" y="100"/>
      <point x="730" y="100" type="qcurve" smooth="yes"/>
      <point x="540" y="100"/>
      <point x="309" y="317"/>
      <point x="309" y="507" type="qcurve" smooth="yes"/>
      <point x="309" y="575" type="line" smooth="yes"/>
      <point x="309" y="765"/>
      <point x="540" y="982"/>
      <point x="730" y="982" type="qcurve" smooth="yes"/>
      <point x="856" y="982"/>
      <point x="1047" y="885"/>
      <point x="1098" y="795" type="qcurve"/>
      <point x="1098" y="987" type="line"/>
      <point x="1023" y="1045"/>
      <point x="836" y="1104"/>
      <point x="730" y="1104" type="qcurve" smooth="yes"/>
      <point x="460" y="1104"/>
      <point x="115" y="825"/>
      <point x="115" y="575" type="qcurve" smooth="yes"/>
    </contour>
    <contour>
      <point x="1010" y="0" type="line"/>
      <point x="1834" y="0" type="line"/>
      <point x="1834" y="117" type="line"/>
      <point x="1202" y="117" type="line"/>
      <point x="1202" y="499" type="line"/>
      <point x="1732" y="499" type="line"/>
      <point x="1732" y="617" type="line"/>
      <point x="1202" y="617" type="line"/>
      <point x="1202" y="964" type="line"/>
      <point x="1824" y="964" type="line"/>
      <point x="1824" y="1082" type="line"/>
      <point x="1010" y="1082" type="line"/>
    </contour>
  </outline>
</glyph>
<glyph name="Germandbls" format="1">
  <advance width="1350"/>
  <unicode hex="1E9E"/>
  <outline>
    <contour>
      <point x="170" y="-5" type="line"/>
      <point x="362" y="-5" type="line"/>
      <point x="362" y="777" type="line" smooth="yes"/>
      <point x="362" y="861.6933962264151"/>
      <point x="520.0" y="948.0"/>
      <point x="670" y="948" type="qcurve" smooth="yes"/>
      <point x="810.0" y="948.0"/>
      <point x="942.5115523223093" y="885.9122023504493"/>
      <point x="950" y="829" type="qcurve"/>
      <point x="630" y="646" type="line"/>
      <point x="676" y="496" type="line"/>
      <point x="880.1568918376934" y="472.9823112143777"/>
      <point x="1048" y="386.11224489795916"/>
      <point x="1048" y="318" type="qcurve" smooth="yes"/>
      <point x="1048" y="288" type="line" smooth="yes"/>
      <point x="1048" y="216.57142857142856"/>
      <point x="860.0" y="138.0"/>
      <point x="710" y="138" type="qcurve" smooth="yes"/>
      <point x="670" y="138"/>
      <point x="576" y="145"/>
      <point x="550" y="149" type="qcurve"/>
      <point x="524" y="-8" type="line"/>
      <point x="560" y="-12"/>
      <point x="670" y="-20"/>
      <point x="720" y="-20" type="qcurve" smooth="yes"/>
      <point x="960" y="-20"/>
      <point x="1242" y="153"/>
      <point x="1242" y="288" type="qcurve" smooth="yes"/>
      <point x="1242" y="318" type="line" smooth="yes"/>
      <point x="1242" y="431"/>
      <point x="1020" y="581"/>
      <point x="846" y="604" type="qcurve"/>
      <point x="846" y="611" type="line"/>
      <point x="1144" y="784" type="line"/>
      <point x="1144" y="799" type="line" smooth="yes"/>
      <point x="1144" y="935"/>
      <point x="890" y="1112"/>
      <point x="670" y="1112" type="qcurve" smooth="yes"/>
      <point x="450" y="1112"/>
      <point x="170" y="942"/>
      <point x="170" y="777" type="qcurve" smooth="yes"/>
    </contour>
  </outline>
</glyph>
